# xmcd CD database file
#
# Track frame offsets:
#	150
#	34129
#	70092
#	96938
#	122756
#	153331
#	187452
#
# Disc length: 2994 seconds
#
# Revision: 1
# Processed by: cddbd v1.5.1PL0 Copyright (c) Steve Scherf et al.
# Submitted via: CDex 1.51
#
DISCID=600bb007
DTITLE=Fritz Pauer - Ridin' Across The Milky Way
DYEAR=2004
DGENRE=Jazz
TTITLE0=Tigre Yaku
TTITLE1=Cumbia Variations
TTITLE2=Vienna Dream
TTITLE3=Liza Do Mar
TTITLE4=English Garden Walk
TTITLE5=Nocturne 3 a.m.
TTITLE6=Ridin' Across The Milky Way
EXTD=YEAR: 2004
EXTT0=
EXTT1=
EXTT2=
EXTT3=
EXTT4=
EXTT5=
EXTT6=
PLAYORDER=
